<svg width="148" height="43" viewBox="0 0 148 43" fill="none" xmlns="http://www.w3.org/2000/svg">
<path d="M10.9863 22.875H8.06836V33H1.89844V7.40625H8.06836V17.3027H10.4414L15.3633 7.40625H22.834L15.8027 19.2188L23.7129 33H16.418L10.9863 22.875ZM42.627 23.6309C42.627 26.584 41.959 28.9453 40.623 30.7148C39.2988 32.4727 37.5059 33.3516 35.2441 33.3516C33.498 33.3516 32.0625 32.7129 30.9375 31.4355V40.3125H25.0137V13.9805H30.5508L30.7266 15.7383C31.8633 14.332 33.3574 13.6289 35.209 13.6289C37.5527 13.6289 39.375 14.4961 40.6758 16.2305C41.9766 17.9531 42.627 20.3262 42.627 23.3496V23.6309ZM36.7031 23.2617C36.7031 19.8867 35.7188 18.1992 33.75 18.1992C32.3438 18.1992 31.4062 18.7031 30.9375 19.7109V27.1992C31.4531 28.2539 32.4023 28.7812 33.7852 28.7812C35.6719 28.7812 36.6445 27.1523 36.7031 23.8945V23.2617ZM56.3203 13.9805H62.2617V33H56.3203V21.9258L51.0996 33H45.1406V13.9805H51.0996V25.0195L56.3203 13.9805ZM64.6875 23.3145C64.6875 21.416 65.0566 19.7285 65.7949 18.252C66.5332 16.7637 67.5938 15.6211 68.9766 14.8242C70.3594 14.0273 71.9824 13.6289 73.8457 13.6289C76.6934 13.6289 78.9375 14.5137 80.5781 16.2832C82.2188 18.041 83.0391 20.4375 83.0391 23.4727V23.6836C83.0391 26.6484 82.2129 29.0039 80.5605 30.75C78.9199 32.4844 76.6934 33.3516 73.8809 33.3516C71.1738 33.3516 69 32.543 67.3594 30.9258C65.7188 29.2969 64.834 27.0938 64.7051 24.3164L64.6875 23.3145ZM70.6113 23.6836C70.6113 25.4414 70.8867 26.7305 71.4375 27.5508C71.9883 28.3711 72.8027 28.7812 73.8809 28.7812C75.9902 28.7812 77.0684 27.1582 77.1152 23.9121V23.3145C77.1152 19.9043 76.0254 18.1992 73.8457 18.1992C71.8652 18.1992 70.793 19.6699 70.6289 22.6113L70.6113 23.6836Z" fill="#0F4898"/>
<path d="M103.195 12.1699H92.0684V33H85.8984V7.40625H103.195V12.1699ZM116.924 28.2188H108.469L106.992 33H100.4L109.787 7.40625H115.588L125.045 33H118.418L116.924 28.2188ZM109.945 23.4551H115.447L112.688 14.5781L109.945 23.4551ZM139.389 14.5078C139.389 13.6992 139.072 13.0488 138.439 12.5566C137.818 12.0645 136.975 11.8184 135.908 11.8184C134.912 11.8184 134.109 12.0586 133.5 12.5391C132.902 13.0078 132.604 13.6289 132.604 14.4023H126.451C126.451 12.9961 126.85 11.7363 127.646 10.623C128.455 9.50977 129.592 8.64258 131.057 8.02148C132.521 7.38867 134.139 7.07227 135.908 7.07227C138.955 7.07227 141.322 7.71094 143.01 8.98828C144.709 10.2656 145.559 12.0527 145.559 14.3496C145.559 15.5215 145.213 16.5938 144.521 17.5664C143.842 18.5273 142.898 19.2891 141.691 19.8516C143.074 20.3438 144.129 21.0938 144.855 22.1016C145.594 23.0977 145.963 24.3398 145.963 25.8281C145.963 28.125 145.049 29.9531 143.221 31.3125C141.393 32.6602 138.955 33.334 135.908 33.334C133.084 33.334 130.74 32.6719 128.877 31.3477C127.014 30.0117 126.082 28.1953 126.082 25.8984H132.27C132.27 26.6602 132.609 27.3047 133.289 27.832C133.969 28.3477 134.842 28.6055 135.908 28.6055C137.057 28.6055 137.988 28.3359 138.703 27.7969C139.418 27.2578 139.775 26.5547 139.775 25.6875C139.775 24.4219 139.471 23.5312 138.861 23.0156C138.252 22.4883 137.361 22.2246 136.189 22.2246H132.902V17.6543H136.4C138.393 17.5957 139.389 16.5469 139.389 14.5078Z" fill="white"/>
</svg>
